ply
format ascii 1.0
comment Written by HALCON (export v1.0)
element vertex 410
property float x
property float y
property float z
element face 678
property list uchar int vertex_index
end_header
-1.275000e-002 0.000000e+000 1.004500e-002
-2.290000e-002 -1.486000e-003 9.928000e-003
-2.290000e-002 0.000000e+000 1.004500e-002
-1.268700e-002 -1.259000e-003 9.962000e-003
-2.290000e-002 -2.936000e-003 9.580000e-003
-1.250000e-002 -2.510000e-003 9.708000e-003
-2.290000e-002 -4.313000e-003 9.010000e-003
-1.219800e-002 -3.712000e-003 9.290000e-003
-1.179900e-002 -4.831000e-003 8.725000e-003
-2.290000e-002 -5.584000e-003 8.231000e-003
-2.290000e-002 -6.718000e-003 7.263000e-003
-1.133400e-002 -5.840000e-003 8.038000e-003
-1.083600e-002 -6.719000e-003 7.261000e-003
-2.290000e-002 -7.686000e-003 6.129000e-003
-1.031800e-002 -7.490000e-003 6.389000e-003
-2.290000e-002 -8.465000e-003 4.858000e-003
-9.793000e-003 -8.165000e-003 5.402000e-003
-2.290000e-002 -9.035000e-003 3.481000e-003
-9.303000e-003 -8.718000e-003 4.319000e-003
-8.896000e-003 -9.134000e-003 3.157000e-003
-2.290000e-002 -9.383000e-003 2.031000e-003
-7.169000e-003 -9.301000e-003 2.481000e-003
7.169000e-003 -9.301000e-003 2.481000e-003
2.290000e-002 -9.383000e-003 2.031000e-003
2.290000e-002 -9.500000e-003 5.450000e-004
2.290000e-002 -9.035000e-003 3.481000e-003
8.896000e-003 -9.134000e-003 3.157000e-003
5.390000e-003 -9.398000e-003 1.936000e-003
3.583000e-003 -9.448000e-003 1.540000e-003
1.777000e-003 -9.470000e-003 1.304000e-003
0.000000e+000 -9.475000e-003 1.227000e-003
-2.290000e-002 -9.500000e-003 5.450000e-004
-1.777000e-003 -9.470000e-003 1.304000e-003
-3.583000e-003 -9.448000e-003 1.540000e-003
-5.390000e-003 -9.398000e-003 1.936000e-003
-2.290000e-002 -9.383000e-003 -9.410000e-004
2.290000e-002 -9.383000e-003 -9.410000e-004
-2.290000e-002 -9.035000e-003 -2.390000e-003
2.290000e-002 -9.035000e-003 -2.390000e-003
-2.290000e-002 -8.465000e-003 -3.768000e-003
2.290000e-002 -8.465000e-003 -3.768000e-003
-2.290000e-002 -7.686000e-003 -5.039000e-003
2.290000e-002 -7.686000e-003 -5.039000e-003
-2.290000e-002 -6.718000e-003 -6.172000e-003
2.290000e-002 -6.718000e-003 -6.172000e-003
-2.290000e-002 -5.584000e-003 -7.140000e-003
2.290000e-002 -5.584000e-003 -7.140000e-003
-2.290000e-002 -4.313000e-003 -7.919000e-003
2.290000e-002 -4.313000e-003 -7.919000e-003
-2.290000e-002 -2.936000e-003 -8.490000e-003
2.290000e-002 -2.936000e-003 -8.490000e-003
-2.290000e-002 -1.486000e-003 -8.838000e-003
2.290000e-002 -1.486000e-003 -8.838000e-003
-2.290000e-002 0.000000e+000 -8.955000e-003
2.290000e-002 0.000000e+000 -8.955000e-003
-2.290000e-002 1.486000e-003 -8.838000e-003
2.290000e-002 1.486000e-003 -8.838000e-003
-2.290000e-002 2.936000e-003 -8.490000e-003
2.290000e-002 2.936000e-003 -8.490000e-003
-2.290000e-002 4.313000e-003 -7.919000e-003
2.290000e-002 4.313000e-003 -7.919000e-003
-2.290000e-002 5.584000e-003 -7.140000e-003
2.290000e-002 5.584000e-003 -7.140000e-003
-2.290000e-002 6.718000e-003 -6.172000e-003
2.290000e-002 6.718000e-003 -6.172000e-003
-2.290000e-002 7.686000e-003 -5.039000e-003
2.290000e-002 7.686000e-003 -5.039000e-003
-2.290000e-002 8.465000e-003 -3.768000e-003
2.290000e-002 8.465000e-003 -3.768000e-003
-2.290000e-002 9.035000e-003 -2.390000e-003
2.290000e-002 9.035000e-003 -2.390000e-003
-2.290000e-002 9.383000e-003 -9.410000e-004
2.290000e-002 9.383000e-003 -9.410000e-004
-2.290000e-002 9.500000e-003 5.450000e-004
2.290000e-002 9.500000e-003 5.450000e-004
8.896000e-003 9.134000e-003 3.157000e-003
2.290000e-002 9.383000e-003 2.031000e-003
2.290000e-002 9.035000e-003 3.481000e-003
7.169000e-003 9.301000e-003 2.481000e-003
-2.290000e-002 9.383000e-003 2.031000e-003
-5.390000e-003 9.398000e-003 1.936000e-003
-7.169000e-003 9.301000e-003 2.481000e-003
-3.583000e-003 9.448000e-003 1.540000e-003
-1.777000e-003 9.470000e-003 1.304000e-003
0.000000e+000 9.475000e-003 1.227000e-003
1.777000e-003 9.470000e-003 1.304000e-003
3.583000e-003 9.448000e-003 1.540000e-003
5.390000e-003 9.398000e-003 1.936000e-003
-2.290000e-002 9.035000e-003 3.481000e-003
-8.896000e-003 9.134000e-003 3.157000e-003
-2.290000e-002 8.465000e-003 4.858000e-003
-9.303000e-003 8.718000e-003 4.319000e-003
-9.793000e-003 8.165000e-003 5.402000e-003
-2.290000e-002 7.686000e-003 6.129000e-003
-1.031800e-002 7.490000e-003 6.389000e-003
-2.290000e-002 6.718000e-003 7.263000e-003
-1.083600e-002 6.719000e-003 7.261000e-003
-2.290000e-002 5.584000e-003 8.231000e-003
-1.133400e-002 5.840000e-003 8.038000e-003
-1.179900e-002 4.831000e-003 8.725000e-003
-2.290000e-002 4.313000e-003 9.010000e-003
-2.290000e-002 2.936000e-003 9.580000e-003
-1.219800e-002 3.712000e-003 9.290000e-003
-1.250000e-002 2.510000e-003 9.708000e-003
-2.290000e-002 1.486000e-003 9.928000e-003
-1.268700e-002 1.259000e-003 9.962000e-003
9.303000e-003 8.718000e-003 4.319000e-003
9.793000e-003 8.165000e-003 5.402000e-003
2.290000e-002 8.465000e-003 4.858000e-003
1.031800e-002 7.490000e-003 6.389000e-003
1.083600e-002 6.719000e-003 7.261000e-003
2.290000e-002 7.686000e-003 6.129000e-003
2.290000e-002 6.718000e-003 7.263000e-003
1.133400e-002 5.840000e-003 8.038000e-003
1.179900e-002 4.831000e-003 8.725000e-003
2.290000e-002 5.584000e-003 8.231000e-003
2.290000e-002 4.313000e-003 9.010000e-003
1.219800e-002 3.712000e-003 9.290000e-003
1.250000e-002 2.510000e-003 9.708000e-003
2.290000e-002 2.936000e-003 9.580000e-003
1.268700e-002 1.259000e-003 9.962000e-003
2.290000e-002 1.486000e-003 9.928000e-003
1.275000e-002 0.000000e+000 1.004500e-002
2.290000e-002 0.000000e+000 1.004500e-002
2.290000e-002 -8.465000e-003 4.858000e-003
9.303000e-003 -8.718000e-003 4.319000e-003
9.793000e-003 -8.165000e-003 5.402000e-003
2.290000e-002 -7.686000e-003 6.129000e-003
1.031800e-002 -7.490000e-003 6.389000e-003
2.290000e-002 -6.718000e-003 7.263000e-003
1.083600e-002 -6.719000e-003 7.261000e-003
2.290000e-002 -5.584000e-003 8.231000e-003
1.133400e-002 -5.840000e-003 8.038000e-003
1.179900e-002 -4.831000e-003 8.725000e-003
2.290000e-002 -4.313000e-003 9.010000e-003
2.290000e-002 -2.936000e-003 9.580000e-003
1.219800e-002 -3.712000e-003 9.290000e-003
1.250000e-002 -2.510000e-003 9.708000e-003
2.290000e-002 -1.486000e-003 9.928000e-003
1.268700e-002 -1.259000e-003 9.962000e-003
-2.290000e-002 2.318000e-003 7.678000e-003
-2.290000e-002 1.173000e-003 7.953000e-003
-2.290000e-002 3.405000e-003 7.228000e-003
-2.290000e-002 4.408000e-003 6.613000e-003
-2.290000e-002 5.303000e-003 5.849000e-003
-2.290000e-002 6.068000e-003 4.954000e-003
-2.290000e-002 6.683000e-003 3.950000e-003
-2.290000e-002 7.133000e-003 2.863000e-003
-2.290000e-002 7.408000e-003 1.719000e-003
-2.290000e-002 7.500000e-003 5.450000e-004
-2.290000e-002 7.408000e-003 -6.280000e-004
-2.290000e-002 7.133000e-003 -1.772000e-003
-2.290000e-002 6.683000e-003 -2.860000e-003
-2.290000e-002 6.068000e-003 -3.863000e-003
-2.290000e-002 5.303000e-003 -4.758000e-003
-2.290000e-002 4.408000e-003 -5.522000e-003
-2.290000e-002 3.405000e-003 -6.137000e-003
-2.290000e-002 2.318000e-003 -6.588000e-003
-2.290000e-002 1.173000e-003 -6.862000e-003
-2.290000e-002 0.000000e+000 -6.955000e-003
-2.290000e-002 -1.173000e-003 -6.862000e-003
-2.290000e-002 -2.318000e-003 -6.588000e-003
-2.290000e-002 -3.405000e-003 -6.137000e-003
-2.290000e-002 -4.408000e-003 -5.522000e-003
-2.290000e-002 -5.303000e-003 -4.758000e-003
-2.290000e-002 -6.068000e-003 -3.863000e-003
-2.290000e-002 -6.683000e-003 -2.860000e-003
-2.290000e-002 -7.133000e-003 -1.772000e-003
-2.290000e-002 -7.408000e-003 -6.280000e-004
-2.290000e-002 -7.500000e-003 5.450000e-004
-2.290000e-002 -7.408000e-003 1.719000e-003
-2.290000e-002 -7.133000e-003 2.863000e-003
-2.290000e-002 -6.683000e-003 3.950000e-003
-2.290000e-002 -6.068000e-003 4.954000e-003
-2.290000e-002 -5.303000e-003 5.849000e-003
-2.290000e-002 -4.408000e-003 6.613000e-003
-2.290000e-002 -3.405000e-003 7.228000e-003
-2.290000e-002 -2.318000e-003 7.678000e-003
-2.290000e-002 -1.173000e-003 7.953000e-003
-2.290000e-002 0.000000e+000 8.045000e-003
2.290000e-002 -2.318000e-003 7.678000e-003
2.290000e-002 -1.173000e-003 7.953000e-003
2.290000e-002 -3.405000e-003 7.228000e-003
2.290000e-002 -4.408000e-003 6.613000e-003
2.290000e-002 -5.303000e-003 5.849000e-003
2.290000e-002 -6.068000e-003 4.954000e-003
2.290000e-002 -6.683000e-003 3.950000e-003
2.290000e-002 -7.133000e-003 2.863000e-003
2.290000e-002 -7.408000e-003 1.719000e-003
2.290000e-002 -7.500000e-003 5.450000e-004
2.290000e-002 -7.408000e-003 -6.280000e-004
2.290000e-002 -7.133000e-003 -1.772000e-003
2.290000e-002 -6.683000e-003 -2.860000e-003
2.290000e-002 -6.068000e-003 -3.863000e-003
2.290000e-002 -5.303000e-003 -4.758000e-003
2.290000e-002 -4.408000e-003 -5.522000e-003
2.290000e-002 -3.405000e-003 -6.137000e-003
2.290000e-002 -2.318000e-003 -6.588000e-003
2.290000e-002 -1.173000e-003 -6.862000e-003
2.290000e-002 0.000000e+000 -6.955000e-003
2.290000e-002 1.173000e-003 -6.862000e-003
2.290000e-002 2.318000e-003 -6.588000e-003
2.290000e-002 3.405000e-003 -6.137000e-003
2.290000e-002 4.408000e-003 -5.522000e-003
2.290000e-002 5.303000e-003 -4.758000e-003
2.290000e-002 6.068000e-003 -3.863000e-003
2.290000e-002 6.683000e-003 -2.860000e-003
2.290000e-002 7.133000e-003 -1.772000e-003
2.290000e-002 7.408000e-003 -6.280000e-004
2.290000e-002 7.500000e-003 5.450000e-004
2.290000e-002 7.408000e-003 1.719000e-003
2.290000e-002 7.133000e-003 2.863000e-003
2.290000e-002 6.683000e-003 3.950000e-003
2.290000e-002 6.068000e-003 4.954000e-003
2.290000e-002 5.303000e-003 5.849000e-003
2.290000e-002 4.408000e-003 6.613000e-003
2.290000e-002 3.405000e-003 7.228000e-003
2.290000e-002 2.318000e-003 7.678000e-003
2.290000e-002 1.173000e-003 7.953000e-003
2.290000e-002 0.000000e+000 8.045000e-003
7.385000e-003 -1.039400e-002 3.157000e-003
5.698000e-003 -1.140600e-002 3.157000e-003
3.876000e-003 -1.214700e-002 3.157000e-003
1.961000e-003 -1.259800e-002 3.157000e-003
0.000000e+000 -1.275000e-002 3.157000e-003
-1.961000e-003 -1.259800e-002 3.157000e-003
-3.876000e-003 -1.214700e-002 3.157000e-003
-5.698000e-003 -1.140600e-002 3.157000e-003
-7.385000e-003 -1.039400e-002 3.157000e-003
-1.259300e-002 1.995000e-003 1.854500e-002
-1.275000e-002 0.000000e+000 1.854500e-002
-1.268800e-002 1.259000e-003 9.961000e-003
-1.212600e-002 3.940000e-003 1.854500e-002
-1.136000e-002 5.788000e-003 1.854500e-002
-1.179900e-002 4.831000e-003 8.725000e-003
-1.031500e-002 7.494000e-003 1.854500e-002
-1.031800e-002 7.490000e-003 6.389000e-003
-9.016000e-003 9.016000e-003 1.854500e-002
-7.494000e-003 1.031500e-002 1.854500e-002
-7.385000e-003 1.039400e-002 3.157000e-003
-5.788000e-003 1.136000e-002 1.854500e-002
-5.698000e-003 1.140600e-002 3.157000e-003
-3.940000e-003 1.212600e-002 1.854500e-002
-3.876000e-003 1.214700e-002 3.157000e-003
-1.995000e-003 1.259300e-002 1.854500e-002
-1.961000e-003 1.259800e-002 3.157000e-003
0.000000e+000 1.275000e-002 1.854500e-002
0.000000e+000 1.275000e-002 3.157000e-003
1.995000e-003 1.259300e-002 1.854500e-002
1.961000e-003 1.259800e-002 3.157000e-003
3.940000e-003 1.212600e-002 1.854500e-002
3.876000e-003 1.214700e-002 3.157000e-003
5.788000e-003 1.136000e-002 1.854500e-002
5.698000e-003 1.140600e-002 3.157000e-003
7.494000e-003 1.031500e-002 1.854500e-002
7.385000e-003 1.039400e-002 3.157000e-003
9.016000e-003 9.016000e-003 1.854500e-002
1.031500e-002 7.494000e-003 1.854500e-002
1.031800e-002 7.490000e-003 6.389000e-003
1.136000e-002 5.788000e-003 1.854500e-002
1.212600e-002 3.940000e-003 1.854500e-002
1.179900e-002 4.831000e-003 8.725000e-003
1.259300e-002 1.995000e-003 1.854500e-002
1.268800e-002 1.259000e-003 9.961000e-003
1.275000e-002 0.000000e+000 1.854500e-002
1.259300e-002 -1.995000e-003 1.854500e-002
1.268800e-002 -1.259000e-003 9.961000e-003
1.212600e-002 -3.940000e-003 1.854500e-002
1.136000e-002 -5.788000e-003 1.854500e-002
1.179900e-002 -4.831000e-003 8.725000e-003
1.031500e-002 -7.494000e-003 1.854500e-002
1.031800e-002 -7.490000e-003 6.389000e-003
9.016000e-003 -9.016000e-003 1.854500e-002
7.494000e-003 -1.031500e-002 1.854500e-002
5.788000e-003 -1.136000e-002 1.854500e-002
3.940000e-003 -1.212600e-002 1.854500e-002
1.995000e-003 -1.259300e-002 1.854500e-002
0.000000e+000 -1.275000e-002 1.854500e-002
-1.995000e-003 -1.259300e-002 1.854500e-002
-3.940000e-003 -1.212600e-002 1.854500e-002
-5.788000e-003 -1.136000e-002 1.854500e-002
-7.494000e-003 -1.031500e-002 1.854500e-002
-9.016000e-003 -9.016000e-003 1.854500e-002
-1.031500e-002 -7.494000e-003 1.854500e-002
-1.031800e-002 -7.490000e-003 6.389000e-003
-1.136000e-002 -5.788000e-003 1.854500e-002
-1.212600e-002 -3.940000e-003 1.854500e-002
-1.179900e-002 -4.831000e-003 8.725000e-003
-1.259300e-002 -1.995000e-003 1.854500e-002
-1.268800e-002 -1.259000e-003 9.961000e-003
-1.400000e-002 0.000000e+000 2.104500e-002
-1.382800e-002 -2.190000e-003 1.854500e-002
-1.400000e-002 0.000000e+000 1.854500e-002
-1.382800e-002 -2.190000e-003 2.104500e-002
-1.331500e-002 -4.326000e-003 1.854500e-002
-1.331500e-002 -4.326000e-003 2.104500e-002
-1.247400e-002 -6.356000e-003 1.854500e-002
-1.247400e-002 -6.356000e-003 2.104500e-002
-1.132600e-002 -8.229000e-003 1.854500e-002
-1.132600e-002 -8.229000e-003 2.104500e-002
-9.899000e-003 -9.899000e-003 1.854500e-002
-9.899000e-003 -9.899000e-003 2.104500e-002
-8.229000e-003 -1.132600e-002 1.854500e-002
-8.229000e-003 -1.132600e-002 2.104500e-002
-6.356000e-003 -1.247400e-002 1.854500e-002
-6.356000e-003 -1.247400e-002 2.104500e-002
-4.326000e-003 -1.331500e-002 1.854500e-002
-4.326000e-003 -1.331500e-002 2.104500e-002
-2.190000e-003 -1.382800e-002 1.854500e-002
-2.190000e-003 -1.382800e-002 2.104500e-002
0.000000e+000 -1.400000e-002 1.854500e-002
0.000000e+000 -1.400000e-002 2.104500e-002
2.190000e-003 -1.382800e-002 1.854500e-002
2.190000e-003 -1.382800e-002 2.104500e-002
4.326000e-003 -1.331500e-002 1.854500e-002
4.326000e-003 -1.331500e-002 2.104500e-002
6.356000e-003 -1.247400e-002 1.854500e-002
6.356000e-003 -1.247400e-002 2.104500e-002
8.229000e-003 -1.132600e-002 1.854500e-002
8.229000e-003 -1.132600e-002 2.104500e-002
9.899000e-003 -9.899000e-003 1.854500e-002
9.899000e-003 -9.899000e-003 2.104500e-002
1.132600e-002 -8.229000e-003 1.854500e-002
1.132600e-002 -8.229000e-003 2.104500e-002
1.247400e-002 -6.356000e-003 1.854500e-002
1.247400e-002 -6.356000e-003 2.104500e-002
1.331500e-002 -4.326000e-003 1.854500e-002
1.331500e-002 -4.326000e-003 2.104500e-002
1.382800e-002 -2.190000e-003 1.854500e-002
1.382800e-002 -2.190000e-003 2.104500e-002
1.400000e-002 0.000000e+000 1.854500e-002
1.400000e-002 0.000000e+000 2.104500e-002
1.382800e-002 2.190000e-003 1.854500e-002
1.382800e-002 2.190000e-003 2.104500e-002
1.331500e-002 4.326000e-003 1.854500e-002
1.331500e-002 4.326000e-003 2.104500e-002
1.247400e-002 6.356000e-003 1.854500e-002
1.247400e-002 6.356000e-003 2.104500e-002
1.132600e-002 8.229000e-003 1.854500e-002
1.132600e-002 8.229000e-003 2.104500e-002
9.899000e-003 9.899000e-003 1.854500e-002
9.899000e-003 9.899000e-003 2.104500e-002
8.229000e-003 1.132600e-002 1.854500e-002
8.229000e-003 1.132600e-002 2.104500e-002
6.356000e-003 1.247400e-002 1.854500e-002
6.356000e-003 1.247400e-002 2.104500e-002
4.326000e-003 1.331500e-002 1.854500e-002
4.326000e-003 1.331500e-002 2.104500e-002
2.190000e-003 1.382800e-002 1.854500e-002
2.190000e-003 1.382800e-002 2.104500e-002
0.000000e+000 1.400000e-002 1.854500e-002
0.000000e+000 1.400000e-002 2.104500e-002
-2.190000e-003 1.382800e-002 1.854500e-002
-2.190000e-003 1.382800e-002 2.104500e-002
-4.326000e-003 1.331500e-002 1.854500e-002
-4.326000e-003 1.331500e-002 2.104500e-002
-6.356000e-003 1.247400e-002 1.854500e-002
-6.356000e-003 1.247400e-002 2.104500e-002
-8.229000e-003 1.132600e-002 1.854500e-002
-8.229000e-003 1.132600e-002 2.104500e-002
-9.899000e-003 9.899000e-003 1.854500e-002
-9.899000e-003 9.899000e-003 2.104500e-002
-1.132600e-002 8.229000e-003 1.854500e-002
-1.132600e-002 8.229000e-003 2.104500e-002
-1.247400e-002 6.356000e-003 1.854500e-002
-1.247400e-002 6.356000e-003 2.104500e-002
-1.331500e-002 4.326000e-003 1.854500e-002
-1.331500e-002 4.326000e-003 2.104500e-002
-1.382800e-002 2.190000e-003 1.854500e-002
-1.382800e-002 2.190000e-003 2.104500e-002
-1.207800e-002 -3.925000e-003 2.104500e-002
-1.254400e-002 -1.987000e-003 2.104500e-002
-1.131600e-002 -5.766000e-003 2.104500e-002
-1.027400e-002 -7.465000e-003 2.104500e-002
-8.980000e-003 -8.980000e-003 2.104500e-002
-7.465000e-003 -1.027400e-002 2.104500e-002
-5.766000e-003 -1.131600e-002 2.104500e-002
-3.925000e-003 -1.207800e-002 2.104500e-002
-1.987000e-003 -1.254400e-002 2.104500e-002
0.000000e+000 -1.270000e-002 2.104500e-002
1.987000e-003 -1.254400e-002 2.104500e-002
3.925000e-003 -1.207800e-002 2.104500e-002
5.766000e-003 -1.131600e-002 2.104500e-002
7.465000e-003 -1.027400e-002 2.104500e-002
8.980000e-003 -8.980000e-003 2.104500e-002
1.027400e-002 -7.465000e-003 2.104500e-002
1.131600e-002 -5.766000e-003 2.104500e-002
1.207800e-002 -3.925000e-003 2.104500e-002
1.254400e-002 -1.987000e-003 2.104500e-002
1.270000e-002 0.000000e+000 2.104500e-002
1.254400e-002 1.987000e-003 2.104500e-002
1.207800e-002 3.925000e-003 2.104500e-002
1.131600e-002 5.766000e-003 2.104500e-002
1.027400e-002 7.465000e-003 2.104500e-002
8.980000e-003 8.980000e-003 2.104500e-002
7.465000e-003 1.027400e-002 2.104500e-002
5.766000e-003 1.131600e-002 2.104500e-002
3.925000e-003 1.207800e-002 2.104500e-002
1.987000e-003 1.254400e-002 2.104500e-002
0.000000e+000 1.270000e-002 2.104500e-002
-1.987000e-003 1.254400e-002 2.104500e-002
-3.925000e-003 1.207800e-002 2.104500e-002
-5.766000e-003 1.131600e-002 2.104500e-002
-7.465000e-003 1.027400e-002 2.104500e-002
-8.980000e-003 8.980000e-003 2.104500e-002
-1.027400e-002 7.465000e-003 2.104500e-002
-1.131600e-002 5.766000e-003 2.104500e-002
-1.207800e-002 3.925000e-003 2.104500e-002
-1.254400e-002 1.987000e-003 2.104500e-002
-1.270000e-002 0.000000e+000 2.104500e-002
3 0 1 2
3 3 1 0
3 4 3 5
3 1 3 4
3 6 7 8
3 5 6 4
3 7 6 5
3 8 9 6
3 10 11 12
3 8 10 9
3 11 10 8
3 12 13 10
3 14 13 12
3 15 14 16
3 13 14 15
3 17 18 19
3 16 17 15
3 18 17 16
3 19 20 17
3 21 20 19
3 22 23 24
3 25 22 26
3 23 22 25
3 22 24 27
3 27 24 28
3 28 24 29
3 29 24 30
3 31 30 24
3 30 31 32
3 32 31 33
3 33 31 34
3 21 31 20
3 34 31 21
3 24 35 31
3 36 35 24
3 37 36 38
3 35 36 37
3 38 39 37
3 40 39 38
3 40 41 39
3 42 41 40
3 43 42 44
3 41 42 43
3 44 45 43
3 46 45 44
3 47 46 48
3 45 46 47
3 48 49 47
3 50 49 48
3 50 51 49
3 52 51 50
3 53 52 54
3 51 52 53
3 54 55 53
3 56 55 54
3 57 56 58
3 55 56 57
3 58 59 57
3 60 59 58
3 60 61 59
3 62 61 60
3 63 62 64
3 61 62 63
3 64 65 63
3 66 65 64
3 67 66 68
3 65 66 67
3 68 69 67
3 70 69 68
3 70 71 69
3 72 71 70
3 73 72 74
3 71 72 73
3 75 76 77
3 78 76 75
3 79 80 81
3 73 80 79
3 80 73 82
3 82 73 83
3 83 73 84
3 84 73 74
3 84 74 85
3 85 74 86
3 86 74 87
3 78 74 76
3 87 74 78
3 88 81 89
3 79 81 88
3 90 91 92
3 88 91 90
3 91 88 89
3 92 93 90
3 94 93 92
3 95 94 96
3 93 94 95
3 97 98 99
3 95 98 97
3 98 95 96
3 97 99 100
3 101 102 103
3 100 102 101
3 102 100 99
3 103 104 101
3 105 104 103
3 2 105 0
3 104 105 2
3 77 106 75
3 107 77 108
3 106 77 107
3 108 109 107
3 110 111 112
3 109 111 110
3 111 109 108
3 112 113 110
3 114 115 116
3 112 114 113
3 115 114 112
3 116 117 114
3 118 116 119
3 117 116 118
3 119 120 118
3 121 120 119
3 122 121 123
3 120 121 122
3 124 125 126
3 25 125 124
3 125 25 26
3 126 127 124
3 128 127 126
3 129 128 130
3 127 128 129
3 131 132 133
3 129 132 131
3 132 129 130
3 131 133 134
3 135 136 137
3 134 136 135
3 136 134 133
3 137 138 135
3 139 138 137
3 123 139 122
3 138 139 123
3 140 104 141
3 140 101 104
3 101 142 100
3 101 140 142
3 100 143 97
3 100 142 143
3 97 144 95
3 97 143 144
3 95 145 93
3 95 144 145
3 93 146 90
3 93 145 146
3 90 147 88
3 90 146 147
3 88 148 79
3 88 147 148
3 79 149 73
3 79 148 149
3 73 150 71
3 73 149 150
3 71 151 69
3 71 150 151
3 69 152 67
3 69 151 152
3 67 153 65
3 67 152 153
3 65 154 63
3 65 153 154
3 63 155 61
3 63 154 155
3 61 156 59
3 61 155 156
3 59 157 57
3 59 156 157
3 57 158 55
3 57 157 158
3 55 159 53
3 55 158 159
3 53 160 51
3 53 159 160
3 51 161 49
3 51 160 161
3 49 162 47
3 49 161 162
3 47 163 45
3 47 162 163
3 45 164 43
3 45 163 164
3 43 165 41
3 43 164 165
3 41 166 39
3 41 165 166
3 39 167 37
3 39 166 167
3 37 168 35
3 37 167 168
3 35 169 31
3 35 168 169
3 31 170 20
3 31 169 170
3 20 171 17
3 20 170 171
3 17 172 15
3 17 171 172
3 15 173 13
3 15 172 173
3 13 174 10
3 13 173 174
3 10 175 9
3 10 174 175
3 9 176 6
3 9 175 176
3 6 177 4
3 6 176 177
3 4 178 1
3 4 177 178
3 1 179 2
3 1 178 179
3 2 141 104
3 2 179 141
3 180 138 181
3 180 135 138
3 135 182 134
3 135 180 182
3 134 183 131
3 134 182 183
3 131 184 129
3 131 183 184
3 129 185 127
3 129 184 185
3 127 186 124
3 127 185 186
3 124 187 25
3 124 186 187
3 25 188 23
3 25 187 188
3 23 189 24
3 23 188 189
3 24 190 36
3 24 189 190
3 36 191 38
3 36 190 191
3 38 192 40
3 38 191 192
3 40 193 42
3 40 192 193
3 42 194 44
3 42 193 194
3 44 195 46
3 44 194 195
3 46 196 48
3 46 195 196
3 48 197 50
3 48 196 197
3 50 198 52
3 50 197 198
3 52 199 54
3 52 198 199
3 54 200 56
3 54 199 200
3 56 201 58
3 56 200 201
3 58 202 60
3 58 201 202
3 60 203 62
3 60 202 203
3 62 204 64
3 62 203 204
3 64 205 66
3 64 204 205
3 66 206 68
3 66 205 206
3 68 207 70
3 68 206 207
3 70 208 72
3 70 207 208
3 72 209 74
3 72 208 209
3 74 210 76
3 74 209 210
3 76 211 77
3 76 210 211
3 77 212 108
3 77 211 212
3 108 213 111
3 108 212 213
3 111 214 112
3 111 213 214
3 112 215 115
3 112 214 215
3 115 216 116
3 115 215 216
3 116 217 119
3 116 216 217
3 119 218 121
3 119 217 218
3 121 219 123
3 121 218 219
3 123 181 138
3 123 219 181
3 22 220 26
3 221 22 27
3 220 22 221
3 222 28 29
3 27 222 221
3 28 222 27
3 29 223 222
3 224 29 30
3 223 29 224
3 30 225 224
3 32 225 30
3 225 32 226
3 227 33 34
3 226 33 227
3 33 226 32
3 34 228 227
3 21 228 34
3 228 21 19
3 0 229 230
3 231 229 0
3 232 103 102
3 231 232 229
3 103 232 231
3 233 98 96
3 98 233 234
3 102 233 232
3 234 233 102
3 96 235 233
3 236 235 96
3 237 91 89
3 91 237 92
3 236 237 235
3 92 237 236
3 89 238 237
3 239 238 89
3 240 239 241
3 238 239 240
3 241 242 240
3 243 242 241
3 243 244 242
3 245 244 243
3 246 245 247
3 244 245 246
3 247 248 246
3 249 248 247
3 250 249 251
3 248 249 250
3 251 252 250
3 253 252 251
3 253 254 252
3 255 254 253
3 256 255 75
3 254 255 256
3 257 107 258
3 256 107 257
3 107 256 106
3 106 256 75
3 259 258 110
3 257 258 259
3 260 261 117
3 259 261 260
3 261 259 113
3 113 259 110
3 262 118 263
3 260 118 262
3 118 260 117
3 264 263 122
3 262 263 264
3 122 265 264
3 266 265 122
3 267 137 136
3 266 267 265
3 137 267 266
3 268 132 130
3 132 268 269
3 136 268 267
3 269 268 136
3 130 270 268
3 271 270 130
3 272 125 26
3 125 272 126
3 271 272 270
3 126 272 271
3 26 273 272
3 220 273 26
3 274 220 221
3 273 220 274
3 221 275 274
3 222 275 221
3 222 276 275
3 223 276 222
3 277 223 224
3 276 223 277
3 224 278 277
3 225 278 224
3 279 225 226
3 278 225 279
3 226 280 279
3 227 280 226
3 227 281 280
3 228 281 227
3 282 228 19
3 281 228 282
3 283 16 284
3 282 16 283
3 16 282 18
3 18 282 19
3 285 284 12
3 283 284 285
3 286 287 7
3 285 287 286
3 287 285 11
3 11 285 12
3 288 5 289
3 286 5 288
3 5 286 7
3 230 289 0
3 288 289 230
3 81 239 89
3 241 81 80
3 239 81 241
3 243 82 83
3 80 243 241
3 82 243 80
3 83 245 243
3 247 83 84
3 245 83 247
3 84 249 247
3 85 249 84
3 249 85 251
3 253 86 87
3 251 86 253
3 86 251 85
3 87 255 253
3 78 255 87
3 255 78 75
3 290 291 292
3 293 291 290
3 294 293 295
3 291 293 294
3 295 296 294
3 297 296 295
3 297 298 296
3 299 298 297
3 300 299 301
3 298 299 300
3 301 302 300
3 303 302 301
3 304 303 305
3 302 303 304
3 305 306 304
3 307 306 305
3 307 308 306
3 309 308 307
3 310 309 311
3 308 309 310
3 311 312 310
3 313 312 311
3 314 313 315
3 312 313 314
3 315 316 314
3 317 316 315
3 317 318 316
3 319 318 317
3 320 319 321
3 318 319 320
3 321 322 320
3 323 322 321
3 324 323 325
3 322 323 324
3 325 326 324
3 327 326 325
3 327 328 326
3 329 328 327
3 330 329 331
3 328 329 330
3 331 332 330
3 333 332 331
3 334 333 335
3 332 333 334
3 335 336 334
3 337 336 335
3 337 338 336
3 339 338 337
3 340 339 341
3 338 339 340
3 341 342 340
3 343 342 341
3 344 343 345
3 342 343 344
3 345 346 344
3 347 346 345
3 347 348 346
3 349 348 347
3 350 349 351
3 348 349 350
3 351 352 350
3 353 352 351
3 354 353 355
3 352 353 354
3 355 356 354
3 357 356 355
3 357 358 356
3 359 358 357
3 360 359 361
3 358 359 360
3 361 362 360
3 363 362 361
3 364 363 365
3 362 363 364
3 365 366 364
3 367 366 365
3 367 368 366
3 369 368 367
3 292 369 290
3 368 369 292
3 232 368 229
3 232 366 368
3 366 233 364
3 366 232 233
3 364 235 362
3 364 233 235
3 362 237 360
3 362 235 237
3 360 238 358
3 360 237 238
3 358 240 356
3 358 238 240
3 356 242 354
3 356 240 242
3 354 244 352
3 354 242 244
3 352 246 350
3 352 244 246
3 350 248 348
3 350 246 248
3 348 250 346
3 348 248 250
3 346 252 344
3 346 250 252
3 344 254 342
3 344 252 254
3 342 256 340
3 342 254 256
3 340 257 338
3 340 256 257
3 338 259 336
3 338 257 259
3 336 260 334
3 336 259 260
3 334 262 332
3 334 260 262
3 332 264 330
3 332 262 264
3 330 265 328
3 330 264 265
3 328 267 326
3 328 265 267
3 326 268 324
3 326 267 268
3 324 270 322
3 324 268 270
3 322 272 320
3 322 270 272
3 320 273 318
3 320 272 273
3 318 274 316
3 318 273 274
3 316 275 314
3 316 274 275
3 314 276 312
3 314 275 276
3 312 277 310
3 312 276 277
3 310 278 308
3 310 277 278
3 308 279 306
3 308 278 279
3 306 280 304
3 306 279 280
3 304 281 302
3 304 280 281
3 302 282 300
3 302 281 282
3 300 283 298
3 300 282 283
3 298 285 296
3 298 283 285
3 296 286 294
3 296 285 286
3 294 288 291
3 294 286 288
3 291 230 292
3 291 288 230
3 292 229 368
3 292 230 229
3 370 293 371
3 370 295 293
3 295 372 297
3 295 370 372
3 297 373 299
3 297 372 373
3 299 374 301
3 299 373 374
3 301 375 303
3 301 374 375
3 303 376 305
3 303 375 376
3 305 377 307
3 305 376 377
3 307 378 309
3 307 377 378
3 309 379 311
3 309 378 379
3 311 380 313
3 311 379 380
3 313 381 315
3 313 380 381
3 315 382 317
3 315 381 382
3 317 383 319
3 317 382 383
3 319 384 321
3 319 383 384
3 321 385 323
3 321 384 385
3 323 386 325
3 323 385 386
3 325 387 327
3 325 386 387
3 327 388 329
3 327 387 388
3 329 389 331
3 329 388 389
3 331 390 333
3 331 389 390
3 333 391 335
3 333 390 391
3 335 392 337
3 335 391 392
3 337 393 339
3 337 392 393
3 339 394 341
3 339 393 394
3 341 395 343
3 341 394 395
3 343 396 345
3 343 395 396
3 345 397 347
3 345 396 397
3 347 398 349
3 347 397 398
3 349 399 351
3 349 398 399
3 351 400 353
3 351 399 400
3 353 401 355
3 353 400 401
3 355 402 357
3 355 401 402
3 357 403 359
3 357 402 403
3 359 404 361
3 359 403 404
3 361 405 363
3 361 404 405
3 363 406 365
3 363 405 406
3 365 407 367
3 365 406 407
3 367 408 369
3 367 407 408
3 369 409 290
3 369 408 409
3 290 371 293
3 290 409 371
